<?xml version="1.0" standalone="no"?>
<!DOCTYPE svg PUBLIC "-//W3C//DTD SVG 20010904//EN"
 "http://www.w3.org/TR/2001/REC-SVG-20010904/DTD/svg10.dtd">
<svg version="1.0" xmlns="http://www.w3.org/2000/svg"
 width="548.000000pt" height="548.000000pt" viewBox="0 0 548.000000 548.000000"
 preserveAspectRatio="xMidYMid meet">
<metadata>
Created by potrace 1.11, written by Peter Selinger 2001-2013
</metadata>
<g transform="translate(0.000000,548.000000) scale(0.100000,-0.100000)"
fill="#000000" stroke="none">
<path d="M2600 4888 c-35 -4 -87 -12 -115 -18 -27 -7 -61 -14 -75 -16 -115
-21 -356 -125 -484 -209 -173 -113 -334 -277 -448 -455 -51 -80 -71 -118 -131
-250 -88 -194 -134 -529 -103 -740 3 -19 7 -56 10 -82 6 -55 34 -175 48 -201
5 -10 12 -31 14 -45 9 -46 76 -195 106 -234 16 -20 27 -40 26 -45 -5 -14 78
-137 122 -183 22 -23 40 -46 40 -51 0 -15 171 -180 180 -174 5 3 12 -1 17 -9
10 -19 99 -86 112 -86 6 0 11 -4 11 -9 0 -17 355 -180 427 -195 29 -7 31 -9
23 -37 -13 -43 -2 -126 22 -172 30 -61 106 -258 123 -323 24 -90 53 -224 60
-274 3 -25 8 -56 10 -70 14 -74 22 -365 24 -882 l1 -128 165 0 165 0 -2 413
c-3 495 3 601 48 827 13 69 31 150 40 180 16 57 98 277 119 317 12 23 13 66 1
120 -7 33 -7 33 87 49 50 9 201 74 267 116 87 54 230 149 253 168 74 59 215
223 299 349 193 284 283 697 229 1046 -19 122 -22 135 -42 193 -11 31 -22 67
-24 79 -7 29 -67 169 -94 216 -11 20 -31 54 -42 74 -62 109 -183 258 -284 349
-119 107 -423 294 -478 294 -7 0 -17 4 -23 9 -21 21 -232 73 -350 87 -80 9
-284 11 -354 2z"/>
</g>
</svg>
